{"title":"The Homecoming: A Christmas Story (1971) DVDRip","uid":9375403,"size":733986849,"categoryP":"video","categoryS":"movies","magnet":"?xt=urn:btih:f4dfe7d265fe5d064dae00a9295e17decc68bdcc&amp;dn=The+Homecoming%3A+A+Christmas+Story+%281971%29+DVDRip&amp;tr=udp%3A%2F%2Ftracker.openbittorrent.com%3A80&amp;tr=udp%3A%2F%2Fopen.demonii.com%3A1337&amp;tr=udp%3A%2F%2Ftracker.coppersurfer.tk%3A6969&amp;tr=udp%3A%2F%2Fexodus.desync.com%3A6969","seeders":1,"leechers":0,"uploader":"7","files":-1,"time":1387614656,"description":" &lt;a href=&quot;https://forum.suprbay.org/Thread-%E2%98%AE-%E2%99%A1-%CB%86%E2%96%BF%CB%86%CA%83%C6%AA-%E2%98%A0-Torrents?pid=13767#pid13767&quot; rel=&quot;nofollow&quot; target=&quot;_NEW&quot;&gt;https://forum.suprbay.org/Thread-%E2%98%AE-%E2%99%A1-%CB%86%E2%96%BF%CB%86%CA%83%C6%AA-%E2%98%A0-Torrents?pid=13767#pid13767&lt;/a&gt;\n\nGenre\t, Drama\nActors\tPatricia Neal, Richard Thomas, Edgar Bergen\nPlot\tThe Walton family is preparing for Christmas in the early 1930s. It's Christmas eve and they are waiting for father Walton to come home from his job in the city some 50 miles away. Since he... \n\n\nIMDB link\t\n &lt;a href=&quot;\nhttp://www.imdb.com/title/tt1795000/&quot; rel=&quot;nofollow&quot; target=&quot;_NEW&quot;&gt;\nhttp://www.imdb.com/title/tt1795000/&lt;/a&gt;\n\nGeneral\nComplete name                            : The Homecoming A Christmas Story (1971).avi\nFormat                                   : AVI\nFormat/Info                              : Audio Video Interleave\nFile size                                : 700 MiB\nDuration                                 : 1h 38mn\nOverall bit rate                         : 995 Kbps\n\nVideo\nID                                       : 0\nFormat                                   : MPEG-4 Visual\nFormat settings, BVOP                    : 1\nFormat settings, QPel                    : No\nFormat settings, GMC                     : No warppoints\nFormat settings, Matrix                  : Default (H.263)\nMuxing mode                              : Packed bitstream\nCodec ID                                 : DX50\nCodec ID/Hint                            : DivX 5\nDuration                                 : 1h 38mn\nBit rate                                 : 858 Kbps\nWidth                                    : 720 pixels\nHeight                                   : 530 pixels\nDisplay aspect ratio                     : 4:3\nFrame rate                               : 23.976 fps\nColor space                              : YUV\nChroma subsampling                       : 4:2:0\nBit depth                                : 8 bits\nScan type                                : Progressive\nCompression mode                         : Lossy\nBits/(Pixel*Frame)                       : 0.094\nStream size                              : 603 MiB (86%)\nTitle                                    : Video\nWriting library                          : DivX 6.8.0 Converter 6.6\n\nAudio\nID                                       : 1\nFormat                                   : MPEG Audio\nFormat version                           : Version 1\nFormat profile                           : Layer 3\nMode                                     : Dual mono\nCodec ID                                 : 55\nCodec ID/Hint                            : MP3\nDuration                                 : 1h 38mn\nBit rate mode                            : Constant\nBit rate                                 : 128 Kbps\nChannel(s)                               : 2 channels\nSampling rate                            : 48.0 KHz\nCompression mode                         : Lossy\nStream size                              : 90.1 MiB (13%)\nAlignment                                : Split accross interleaves\nInterleave, duration                     : 42 ms (1.00 video frame)\nInterleave, preload duration             : 500 ms\nTitle                                    : Audio\nWriting library                          : LAME3.92\n\n &lt;a href=&quot;\nhttp://lookpic.com/O/i2/1308/idzCyaO7.jpeg&quot; rel=&quot;nofollow&quot; target=&quot;_NEW&quot;&gt;\nhttp://lookpic.com/O/i2/1308/idzCyaO7.jpeg&lt;/a&gt;","torrent":{"xt":"urn:btih:f4dfe7d265fe5d064dae00a9295e17decc68bdcc","amp;dn":"The+Homecoming%3A+A+Christmas+Story+%281971%29+DVDRip","amp;tr":["udp%3A%2F%2Ftracker.openbittorrent.com%3A80","udp%3A%2F%2Fopen.demonii.com%3A1337","udp%3A%2F%2Ftracker.coppersurfer.tk%3A6969","udp%3A%2F%2Fexodus.desync.com%3A6969"],"infoHash":"f4dfe7d265fe5d064dae00a9295e17decc68bdcc","infoHashBuffer":{"type":"Buffer","data":[244,223,231,210,101,254,93,6,77,174,0,169,41,94,23,222,204,104,189,204]},"announce":[],"urlList":[]}}